<svg xmlns="http://www.w3.org/2000/svg" xmlns:xlink="http://www.w3.org/1999/xlink" width="180" zoomAndPan="magnify" viewBox="0 0 135 135.000003" height="180" preserveAspectRatio="xMidYMid meet" version="1.2"><defs><clipPath id="e7f5b5352a"><path d="M 2.578125 2.082031 L 132.863281 2.082031 L 132.863281 132.367188 L 2.578125 132.367188 Z M 2.578125 2.082031 "/></clipPath></defs><g id="26d0a718f9"><g clip-rule="nonzero" clip-path="url(#e7f5b5352a)"><path style=" stroke:none;fill-rule:nonzero;fill:#000000;fill-opacity:1;" d="M 118.5625 26.519531 C 118.5625 26.519531 118.5625 26.503906 118.5625 26.519531 C 106.113281 10.984375 87.582031 2.082031 67.722656 2.082031 C 47.859375 2.082031 29.332031 10.984375 16.878906 26.503906 C 7.527344 38.183594 2.578125 52.257812 2.578125 67.222656 C 2.578125 82.191406 7.527344 96.261719 16.878906 107.945312 C 29.332031 123.464844 47.859375 132.367188 67.722656 132.367188 C 87.582031 132.367188 106.113281 123.464844 118.5625 107.945312 C 127.914062 96.261719 132.863281 82.191406 132.863281 67.222656 C 132.863281 52.257812 127.914062 38.183594 118.5625 26.519531 Z M 115.550781 102.359375 C 110.425781 99.550781 104.417969 97.261719 97.832031 95.523438 C 99.683594 87.824219 100.796875 79.238281 100.988281 70.121094 L 127 70.121094 C 126.449219 81.84375 122.527344 92.90625 115.550781 102.359375 Z M 19.890625 102.359375 C 12.914062 92.90625 8.992188 81.84375 8.441406 70.121094 L 34.453125 70.121094 C 34.644531 79.238281 35.757812 87.824219 37.609375 95.523438 C 31.023438 97.261719 25.03125 99.550781 19.890625 102.359375 Z M 19.890625 32.089844 C 25.015625 34.898438 31.023438 37.1875 37.609375 38.921875 C 35.757812 46.625 34.65625 55.210938 34.453125 64.328125 L 8.441406 64.328125 C 8.992188 52.605469 12.914062 41.542969 19.890625 32.089844 Z M 70.617188 42.570312 C 78.085938 42.414062 85.339844 41.617188 92.097656 40.242188 C 93.878906 47.566406 94.980469 55.730469 95.183594 64.316406 L 70.617188 64.316406 Z M 70.617188 36.78125 L 70.617188 8.21875 C 78.824219 10.175781 86.089844 20.308594 90.5625 34.652344 C 84.296875 35.898438 77.566406 36.621094 70.617188 36.78125 Z M 64.824219 8.21875 L 64.824219 36.78125 C 57.878906 36.621094 51.144531 35.898438 44.878906 34.652344 C 49.351562 20.320312 56.617188 10.175781 64.824219 8.21875 Z M 64.824219 42.570312 L 64.824219 64.328125 L 40.246094 64.328125 C 40.449219 55.746094 41.546875 47.582031 43.328125 40.253906 C 50.101562 41.617188 57.355469 42.414062 64.824219 42.570312 Z M 40.246094 70.121094 L 64.824219 70.121094 L 64.824219 91.878906 C 57.355469 92.035156 50.101562 92.832031 43.34375 94.207031 C 41.546875 86.867188 40.449219 78.703125 40.246094 70.121094 Z M 64.824219 97.667969 L 64.824219 126.230469 C 56.617188 124.273438 49.351562 114.140625 44.878906 99.78125 C 51.144531 98.550781 57.878906 97.828125 64.824219 97.667969 Z M 70.617188 126.230469 L 70.617188 97.667969 C 77.566406 97.828125 84.296875 98.550781 90.5625 99.796875 C 86.089844 114.128906 78.824219 124.273438 70.617188 126.230469 Z M 70.617188 91.878906 L 70.617188 70.121094 L 95.195312 70.121094 C 94.992188 78.703125 93.894531 86.867188 92.113281 94.195312 C 85.339844 92.832031 78.085938 92.035156 70.617188 91.878906 Z M 100.988281 64.328125 C 100.796875 55.210938 99.683594 46.625 97.832031 38.921875 C 104.417969 37.199219 110.425781 34.898438 115.550781 32.089844 C 122.527344 41.542969 126.449219 52.605469 127 64.328125 Z M 111.816406 27.515625 C 107.285156 29.890625 102.042969 31.84375 96.3125 33.351562 C 93.328125 23.609375 89.085938 15.617188 83.992188 10.128906 C 94.617188 13.15625 104.257812 19.121094 111.816406 27.515625 Z M 51.464844 10.128906 C 46.367188 15.601562 42.128906 23.609375 39.144531 33.351562 C 33.398438 31.84375 28.171875 29.890625 23.640625 27.515625 C 31.183594 19.121094 40.824219 13.15625 51.464844 10.128906 Z M 23.625 106.933594 C 28.15625 104.558594 33.398438 102.605469 39.128906 101.097656 C 42.113281 110.839844 46.355469 118.847656 51.449219 124.316406 C 40.824219 121.292969 31.183594 115.328125 23.625 106.933594 Z M 83.976562 124.316406 C 89.074219 118.847656 93.316406 110.839844 96.296875 101.097656 C 102.042969 102.605469 107.269531 104.558594 111.800781 106.933594 C 104.257812 115.328125 94.617188 121.292969 83.976562 124.316406 Z M 83.976562 124.316406 "/></g></g></svg>