<svg xmlns="http://www.w3.org/2000/svg" xmlns:xlink="http://www.w3.org/1999/xlink" width="180" zoomAndPan="magnify" viewBox="0 0 135 135.000003" height="180" preserveAspectRatio="xMidYMid meet" version="1.2"><defs><clipPath id="7755f7ddb6"><path d="M 23 1 L 113.386719 1 L 113.386719 134 L 23 134 Z M 23 1 "/></clipPath></defs><g id="bd1370f017"><g clip-rule="nonzero" clip-path="url(#7755f7ddb6)"><path style=" stroke:none;fill-rule:nonzero;fill:#000000;fill-opacity:1;" d="M 98.351562 12.617188 C 88.675781 3.980469 76.179688 0.0234375 63.160156 1.472656 C 42.738281 3.75 26.117188 20.167969 23.648438 40.511719 C 21.804688 55.671875 27.636719 70.578125 39.242188 80.386719 C 39.566406 80.660156 39.878906 80.921875 40.183594 81.179688 C 44.441406 84.75 46.03125 86.085938 46.03125 91.074219 L 46.03125 94.792969 C 42.785156 95.667969 40.390625 98.628906 40.390625 102.140625 L 40.390625 104.738281 C 40.390625 108.316406 42.878906 111.324219 46.222656 112.136719 C 45.75 113.125 45.488281 114.226562 45.488281 115.394531 L 45.488281 117.992188 C 45.488281 122.1875 48.910156 125.605469 53.117188 125.605469 L 57.722656 125.605469 C 58.578125 130.359375 62.75 133.976562 67.757812 133.976562 L 68.921875 133.976562 C 73.929688 133.976562 78.101562 130.359375 78.957031 125.605469 L 83.574219 125.605469 C 87.78125 125.605469 91.203125 122.1875 91.203125 117.992188 L 91.203125 115.394531 C 91.203125 114.226562 90.941406 113.125 90.46875 112.136719 C 93.808594 111.324219 96.300781 108.316406 96.300781 104.738281 L 96.300781 102.140625 C 96.300781 98.625 93.898438 95.660156 90.644531 94.789062 L 90.644531 90.941406 C 90.644531 86.144531 92.269531 84.769531 96.195312 81.449219 C 96.75 80.976562 97.335938 80.480469 97.953125 79.941406 C 107.753906 71.40625 113.371094 59.074219 113.371094 46.113281 C 113.371094 33.34375 107.898438 21.136719 98.351562 12.617188 Z M 68.921875 129.40625 L 67.757812 129.40625 C 65.292969 129.40625 63.199219 127.8125 62.441406 125.605469 L 74.234375 125.605469 C 73.480469 127.8125 71.386719 129.40625 68.921875 129.40625 Z M 86.621094 117.992188 C 86.621094 119.667969 85.253906 121.03125 83.574219 121.03125 L 53.117188 121.03125 C 51.4375 121.03125 50.070312 119.667969 50.070312 117.992188 L 50.070312 115.390625 C 50.070312 113.714844 51.4375 112.351562 53.117188 112.351562 L 83.574219 112.351562 C 85.253906 112.351562 86.621094 113.714844 86.621094 115.390625 Z M 91.71875 102.140625 L 91.71875 104.738281 C 91.71875 106.414062 90.351562 107.78125 88.667969 107.78125 L 48.023438 107.78125 C 46.339844 107.78125 44.972656 106.414062 44.972656 104.738281 L 44.972656 102.140625 C 44.972656 100.460938 46.339844 99.097656 48.023438 99.097656 L 88.667969 99.097656 C 90.351562 99.097656 91.71875 100.460938 91.71875 102.140625 Z M 94.941406 76.5 C 94.34375 77.019531 93.773438 77.503906 93.230469 77.960938 C 89.070312 81.480469 86.066406 84.027344 86.066406 90.941406 L 86.066406 94.527344 L 50.613281 94.527344 L 50.613281 91.070312 C 50.613281 83.957031 47.636719 81.457031 43.132812 77.679688 C 42.832031 77.429688 42.523438 77.167969 42.203125 76.898438 C 31.777344 68.085938 26.539062 54.691406 28.195312 41.0625 C 30.414062 22.800781 45.332031 8.058594 63.671875 6.015625 C 75.375 4.710938 86.605469 8.265625 95.296875 16.023438 C 103.875 23.675781 108.792969 34.644531 108.792969 46.113281 C 108.792969 57.753906 103.742188 68.828125 94.941406 76.5 Z M 94.941406 76.5 "/></g></g></svg>