<svg xmlns="http://www.w3.org/2000/svg" xmlns:xlink="http://www.w3.org/1999/xlink" width="180" zoomAndPan="magnify" viewBox="0 0 135 135.000003" height="180" preserveAspectRatio="xMidYMid meet" version="1.2"><defs><clipPath id="5f5b5fccfa"><path d="M 5.382812 20.613281 L 132.515625 20.613281 L 132.515625 124.546875 L 5.382812 124.546875 Z M 5.382812 20.613281 "/></clipPath></defs><g id="0396bba78a"><g clip-rule="nonzero" clip-path="url(#5f5b5fccfa)"><path style=" stroke:none;fill-rule:nonzero;fill:#000000;fill-opacity:1;" d="M 90.507812 20.960938 L 131.082031 32.820312 L 130.53125 34.71875 L 131.089844 32.816406 C 132.140625 33.125 132.746094 34.222656 132.4375 35.273438 C 132.429688 35.296875 132.421875 35.316406 132.417969 35.339844 L 122.421875 76.332031 L 120.5 75.867188 L 122.429688 76.335938 C 122.28125 76.949219 121.863281 77.425781 121.328125 77.667969 L 41.320312 123.75 L 41.320312 123.757812 C 41.273438 123.785156 41.222656 123.8125 41.171875 123.839844 C 39.773438 124.589844 38.199219 124.734375 36.769531 124.351562 C 35.285156 123.953125 33.949219 122.992188 33.121094 121.566406 L 34.835938 120.574219 L 34.785156 120.605469 L 33.121094 121.566406 L 33.121094 121.5625 L 33.117188 121.566406 C 33.09375 121.527344 33.074219 121.484375 33.050781 121.445312 L 6.097656 74.871094 L 7.816406 73.882812 L 7.761719 73.914062 L 6.097656 74.871094 L 6.09375 74.871094 C 6.066406 74.820312 6.039062 74.769531 6.011719 74.714844 C 5.351562 73.484375 5.226562 72.09375 5.566406 70.835938 C 5.917969 69.519531 6.773438 68.339844 8.046875 67.605469 L 9.039062 69.316406 L 9.007812 69.261719 L 8.046875 67.605469 L 8.050781 67.605469 L 8.046875 67.601562 C 8.085938 67.578125 8.125 67.554688 8.167969 67.535156 L 88.796875 21.097656 L 89.789062 22.808594 L 88.796875 21.089844 C 89.339844 20.78125 89.96875 20.75 90.507812 20.960938 Z M 128.160156 36.082031 L 90.050781 24.941406 L 10.152344 70.957031 C 10.089844 71 10.023438 71.039062 9.957031 71.074219 C 9.675781 71.265625 9.484375 71.542969 9.398438 71.859375 C 9.316406 72.171875 9.339844 72.511719 9.488281 72.8125 C 9.53125 72.878906 9.566406 72.945312 9.601562 73.015625 L 36.484375 119.464844 C 36.527344 119.53125 36.570312 119.601562 36.605469 119.671875 C 36.886719 120.105469 37.316406 120.398438 37.792969 120.527344 C 38.269531 120.652344 38.789062 120.613281 39.25 120.378906 C 39.332031 120.328125 39.414062 120.28125 39.503906 120.242188 L 118.773438 74.582031 Z M 40.339844 122.0625 L 40.328125 122.042969 L 40.339844 122.0625 "/></g><path style=" stroke:none;fill-rule:nonzero;fill:#000000;fill-opacity:1;" d="M 116.371094 10.90625 C 117.328125 10.382812 117.683594 9.183594 117.160156 8.226562 C 116.636719 7.269531 115.4375 6.914062 114.476562 7.4375 C 114.402344 7.476562 88.300781 21.308594 104.011719 49.933594 C 104.535156 50.894531 105.734375 51.246094 106.695312 50.722656 C 107.65625 50.203125 108.011719 49.003906 107.488281 48.042969 C 93.699219 22.914062 116.304688 10.941406 116.371094 10.90625 "/><path style=" stroke:none;fill-rule:evenodd;fill:#000000;fill-opacity:1;" d="M 103.8125 45.636719 Z M 109.675781 55.765625 Z M 102.589844 41.824219 C 102.332031 41.9375 102.074219 42.070312 101.824219 42.214844 C 99.949219 43.292969 98.6875 45.03125 98.171875 46.964844 C 97.652344 48.890625 97.871094 51.019531 98.953125 52.890625 L 98.957031 52.90625 C 100.039062 54.777344 101.78125 56.03125 103.71875 56.550781 C 105.65625 57.070312 107.792969 56.847656 109.675781 55.765625 C 111.550781 54.683594 112.808594 52.949219 113.328125 51.015625 C 113.847656 49.082031 113.628906 46.949219 112.542969 45.074219 C 111.457031 43.203125 109.71875 41.945312 107.78125 41.429688 C 106.101562 40.980469 104.269531 41.085938 102.589844 41.824219 Z M 106.753906 45.253906 C 107.714844 45.507812 108.578125 46.132812 109.113281 47.054688 C 109.648438 47.980469 109.753906 49.035156 109.496094 49.992188 C 109.25 50.90625 108.546875 51.914062 107.6875 52.34375 C 106.761719 52.878906 105.707031 52.984375 104.746094 52.726562 C 103.933594 52.511719 103.191406 52.035156 102.660156 51.332031 L 102.261719 50.699219 C 101.835938 49.832031 101.765625 48.871094 102.003906 47.988281 C 102.261719 47.027344 102.882812 46.171875 103.8125 45.636719 C 103.882812 45.59375 103.953125 45.558594 104.023438 45.519531 C 104.894531 45.089844 105.867188 45.015625 106.753906 45.253906 "/></g></svg>