<svg xmlns="http://www.w3.org/2000/svg" xmlns:xlink="http://www.w3.org/1999/xlink" width="180" zoomAndPan="magnify" viewBox="0 0 135 135.000003" height="180" preserveAspectRatio="xMidYMid meet" version="1.2"><defs><clipPath id="41f79f5a1a"><path d="M 13 31 L 123 31 L 123 124.960938 L 13 124.960938 Z M 13 31 "/></clipPath><clipPath id="9f3a55cc8f"><path d="M 59 9.566406 L 76 9.566406 L 76 26 L 59 26 Z M 59 9.566406 "/></clipPath><clipPath id="52c286f46d"><path d="M 5.066406 57 L 16 57 L 16 79 L 5.066406 79 Z M 5.066406 57 "/></clipPath><clipPath id="50f58534c9"><path d="M 119 57 L 130.886719 57 L 130.886719 79 L 119 79 Z M 119 57 "/></clipPath></defs><g id="b880383fe5"><g clip-rule="nonzero" clip-path="url(#41f79f5a1a)"><path style=" stroke:none;fill-rule:nonzero;fill:#000000;fill-opacity:1;" d="M 49.527344 31.738281 L 85.894531 31.738281 C 95.890625 31.738281 104.972656 35.828125 111.558594 42.410156 C 118.140625 48.992188 122.230469 58.082031 122.230469 68.078125 C 122.230469 78.074219 118.140625 87.160156 111.558594 93.742188 C 104.972656 100.328125 95.890625 104.414062 85.894531 104.414062 L 81.921875 104.414062 L 61.75 123.214844 C 59.925781 124.910156 57.070312 124.804688 55.375 122.984375 C 54.566406 122.113281 54.167969 121.011719 54.167969 119.910156 L 54.15625 119.910156 L 54.15625 104.414062 L 49.527344 104.414062 C 39.53125 104.414062 30.449219 100.328125 23.863281 93.742188 C 17.277344 87.160156 13.191406 78.074219 13.191406 68.078125 C 13.191406 58.082031 17.277344 48.992188 23.863281 42.410156 C 30.449219 35.828125 39.53125 31.738281 49.527344 31.738281 Z M 85.894531 40.78125 L 49.527344 40.78125 C 42.027344 40.78125 35.203125 43.851562 30.253906 48.804688 C 25.304688 53.75 22.230469 60.574219 22.230469 68.078125 C 22.230469 75.582031 25.304688 82.402344 30.253906 87.351562 C 35.203125 92.300781 42.027344 95.375 49.527344 95.375 L 58.675781 95.375 C 61.171875 95.375 63.195312 97.398438 63.195312 99.894531 L 63.195312 109.535156 L 76.863281 96.796875 C 77.691406 95.921875 78.859375 95.375 80.160156 95.375 L 85.894531 95.375 C 93.394531 95.375 100.21875 92.300781 105.167969 87.351562 C 110.113281 82.402344 113.1875 75.582031 113.1875 68.078125 C 113.1875 60.574219 110.113281 53.75 105.167969 48.804688 C 100.21875 43.851562 93.394531 40.78125 85.894531 40.78125 Z M 85.894531 40.78125 "/></g><path style=" stroke:none;fill-rule:evenodd;fill:#000000;fill-opacity:1;" d="M 64.640625 18.078125 L 70.78125 18.078125 L 70.78125 36.722656 L 64.640625 36.722656 Z M 64.640625 18.078125 "/><g clip-rule="nonzero" clip-path="url(#9f3a55cc8f)"><path style=" stroke:none;fill-rule:evenodd;fill:#000000;fill-opacity:1;" d="M 67.710938 9.605469 C 72.15625 9.605469 75.761719 13.210938 75.761719 17.65625 C 75.761719 22.101562 72.15625 25.707031 67.710938 25.707031 C 63.265625 25.707031 59.660156 22.101562 59.660156 17.65625 C 59.660156 13.210938 63.265625 9.605469 67.710938 9.605469 Z M 67.710938 9.605469 "/></g><g clip-rule="nonzero" clip-path="url(#52c286f46d)"><path style=" stroke:none;fill-rule:evenodd;fill:#000000;fill-opacity:1;" d="M 15.808594 78.820312 C 9.875 78.820312 5.066406 74.007812 5.066406 68.078125 C 5.066406 62.144531 9.875 57.335938 15.808594 57.335938 Z M 15.808594 78.820312 "/></g><g clip-rule="nonzero" clip-path="url(#50f58534c9)"><path style=" stroke:none;fill-rule:evenodd;fill:#000000;fill-opacity:1;" d="M 119.761719 78.820312 C 125.691406 78.820312 130.5 74.007812 130.5 68.078125 C 130.5 62.144531 125.691406 57.335938 119.761719 57.335938 Z M 119.761719 78.820312 "/></g><path style=" stroke:none;fill-rule:evenodd;fill:#000000;fill-opacity:1;" d="M 52.988281 55.21875 C 55.617188 55.21875 57.765625 57.371094 57.765625 59.996094 L 57.765625 74.457031 C 57.765625 77.082031 55.617188 79.230469 52.988281 79.230469 C 50.363281 79.230469 48.214844 77.082031 48.214844 74.457031 L 48.214844 59.996094 C 48.214844 57.371094 50.363281 55.21875 52.988281 55.21875 Z M 52.988281 55.21875 "/><path style=" stroke:none;fill-rule:evenodd;fill:#000000;fill-opacity:1;" d="M 82.429688 55.21875 L 82.433594 55.21875 C 85.058594 55.21875 87.207031 57.371094 87.207031 59.996094 L 87.207031 74.457031 C 87.207031 77.082031 85.058594 79.230469 82.433594 79.230469 L 82.429688 79.230469 C 79.800781 79.230469 77.65625 77.082031 77.65625 74.457031 L 77.65625 59.996094 C 77.65625 57.371094 79.800781 55.21875 82.429688 55.21875 Z M 82.429688 55.21875 "/></g></svg>