<svg xmlns="http://www.w3.org/2000/svg" xmlns:xlink="http://www.w3.org/1999/xlink" width="500" zoomAndPan="magnify" viewBox="0 0 375 374.999991" height="500" preserveAspectRatio="xMidYMid meet" version="1.2"><defs><clipPath id="f2c587ff32"><path d="M 5.355469 6.472656 L 369.855469 6.472656 L 369.855469 370.972656 L 5.355469 370.972656 Z M 5.355469 6.472656 "/></clipPath></defs><g id="3b835ae23a"><path style=" stroke:none;fill-rule:nonzero;fill:#000000;fill-opacity:1;" d="M 261.765625 118.402344 L 230.75 264.265625 C 229.214844 271.480469 220.617188 274.703125 214.628906 270.40625 L 140.777344 215.4375 L 222.308594 141.742188 C 222.308594 141.742188 227.835938 137.289062 226.296875 135.90625 C 224.609375 134.21875 218.621094 137.902344 215.398438 140.050781 C 212.328125 142.199219 115.597656 203.308594 115.597656 203.308594 L 66.773438 187.957031 C 61.246094 186.265625 61.246094 178.742188 69.230469 175.367188 L 249.484375 105.964844 C 257.160156 102.128906 263.453125 111.03125 261.765625 118.402344 Z M 261.765625 118.402344 "/><g clip-rule="nonzero" clip-path="url(#f2c587ff32)"><path style=" stroke:none;fill-rule:nonzero;fill:#000000;fill-opacity:1;" d="M 187.605469 370.972656 C 87.191406 370.972656 5.355469 289.289062 5.355469 188.722656 C 5.355469 88.308594 87.191406 6.472656 187.605469 6.472656 C 288.175781 6.472656 369.855469 88.308594 369.855469 188.722656 C 369.855469 289.289062 288.175781 370.972656 187.605469 370.972656 Z M 187.605469 16.453125 C 92.566406 16.453125 15.335938 93.683594 15.335938 188.722656 C 15.335938 283.761719 92.566406 360.992188 187.605469 360.992188 C 282.648438 360.992188 359.878906 283.761719 359.878906 188.722656 C 359.878906 93.683594 282.648438 16.453125 187.605469 16.453125 Z M 187.605469 16.453125 "/></g></g></svg>