<svg xmlns="http://www.w3.org/2000/svg" xmlns:xlink="http://www.w3.org/1999/xlink" width="500" zoomAndPan="magnify" viewBox="0 0 375 374.999991" height="500" preserveAspectRatio="xMidYMid meet" version="1.2"><defs><clipPath id="d32e44e8ef"><path d="M 4.074219 4.464844 L 370.074219 4.464844 L 370.074219 370.464844 L 4.074219 370.464844 Z M 4.074219 4.464844 "/></clipPath></defs><g id="6c38f51ed9"><g clip-rule="nonzero" clip-path="url(#d32e44e8ef)"><path style=" stroke:none;fill-rule:nonzero;fill:#000000;fill-opacity:1;" d="M 66.035156 4.464844 L 308.109375 4.464844 C 325.152344 4.464844 340.644531 11.433594 351.871094 22.664062 C 363.097656 33.890625 370.066406 49.382812 370.066406 66.425781 L 370.066406 308.496094 C 370.066406 325.542969 363.097656 341.035156 351.871094 352.257812 C 340.644531 363.484375 325.152344 370.457031 308.109375 370.457031 L 66.035156 370.457031 C 48.992188 370.457031 33.5 363.484375 22.273438 352.257812 C 11.046875 341.03125 4.074219 325.539062 4.074219 308.496094 L 4.074219 66.425781 C 4.074219 49.378906 11.046875 33.890625 22.273438 22.664062 C 33.5 11.433594 48.992188 4.464844 66.035156 4.464844 Z M 308.109375 14.472656 L 66.035156 14.472656 C 51.753906 14.472656 38.765625 20.320312 29.347656 29.738281 C 19.929688 39.152344 14.085938 52.144531 14.085938 66.425781 L 14.085938 308.496094 C 14.085938 322.78125 19.929688 335.765625 29.347656 345.183594 C 38.765625 354.601562 51.753906 360.449219 66.035156 360.449219 L 308.109375 360.449219 C 322.390625 360.449219 335.378906 354.605469 344.796875 345.183594 C 354.214844 335.765625 360.0625 322.78125 360.0625 308.496094 L 360.0625 66.425781 C 360.0625 52.144531 354.214844 39.152344 344.796875 29.738281 C 335.378906 20.320312 322.390625 14.472656 308.109375 14.472656 Z M 308.109375 14.472656 "/></g><path style=" stroke:none;fill-rule:nonzero;fill:#000000;fill-opacity:1;" d="M 77.199219 26.988281 L 296.941406 26.988281 C 310.863281 26.988281 323.515625 32.679688 332.683594 41.847656 C 341.851562 51.019531 347.542969 63.667969 347.542969 77.589844 L 347.542969 297.332031 C 347.542969 311.25 341.851562 323.902344 332.683594 333.070312 C 323.511719 342.238281 310.863281 347.933594 296.941406 347.933594 L 77.199219 347.933594 C 63.28125 347.933594 50.628906 342.242188 41.460938 333.070312 C 32.292969 323.902344 26.597656 311.25 26.597656 297.332031 L 26.597656 77.589844 C 26.597656 63.667969 32.289062 51.015625 41.460938 41.847656 C 50.628906 32.679688 63.28125 26.988281 77.199219 26.988281 Z M 296.941406 36.996094 L 77.199219 36.996094 C 66.042969 36.996094 55.894531 41.5625 48.535156 48.925781 C 41.175781 56.28125 36.609375 66.429688 36.609375 77.589844 L 36.609375 297.332031 C 36.609375 308.488281 41.175781 318.636719 48.535156 325.996094 C 55.894531 333.355469 66.042969 337.921875 77.199219 337.921875 L 296.941406 337.921875 C 308.101562 337.921875 318.246094 333.355469 325.609375 325.996094 C 332.964844 318.636719 337.535156 308.488281 337.535156 297.332031 L 337.535156 77.589844 C 337.535156 66.429688 332.96875 56.285156 325.609375 48.925781 C 318.25 41.566406 308.101562 36.996094 296.941406 36.996094 Z M 296.941406 36.996094 "/><path style=" stroke:none;fill-rule:nonzero;fill:#000000;fill-opacity:1;" d="M 84.625 87.273438 L 149.621094 87.273438 C 151.398438 87.273438 152.960938 88.203125 153.847656 89.601562 L 293.542969 279.691406 C 295.171875 281.917969 294.6875 285.039062 292.46875 286.671875 C 291.578125 287.324219 290.542969 287.636719 289.515625 287.636719 L 289.515625 287.648438 L 224.519531 287.648438 C 222.742188 287.648438 221.179688 286.71875 220.292969 285.320312 L 80.601562 95.230469 C 78.96875 93.007812 79.453125 89.882812 81.675781 88.25 C 82.5625 87.601562 83.601562 87.285156 84.625 87.285156 Z M 147.105469 97.28125 L 94.5 97.28125 L 227.035156 277.640625 L 279.644531 277.640625 Z M 147.105469 97.28125 "/><path style=" stroke:none;fill-rule:nonzero;fill:#000000;fill-opacity:1;" d="M 241.503906 87.273438 L 275.433594 87.273438 C 278.199219 87.273438 280.4375 89.511719 280.4375 92.273438 C 280.4375 93.589844 279.929688 94.789062 279.097656 95.683594 L 214.527344 178.324219 C 212.832031 180.492188 209.699219 180.875 207.53125 179.183594 C 207.160156 178.894531 206.839844 178.5625 206.578125 178.203125 L 190.128906 155.828125 C 188.71875 153.902344 188.886719 151.304688 190.398438 149.585938 L 237.570312 89.207031 C 238.554688 87.949219 240.019531 87.289062 241.5 87.289062 L 241.5 87.273438 Z M 265.199219 97.28125 L 243.917969 97.28125 L 200.414062 152.960938 L 210.726562 166.996094 Z M 180.859375 221.414062 L 130.625 285.710938 C 129.640625 286.96875 128.175781 287.625 126.695312 287.625 L 126.695312 287.644531 L 92.761719 287.644531 C 90 287.644531 87.761719 285.40625 87.761719 282.644531 C 87.761719 281.328125 88.269531 280.128906 89.101562 279.234375 L 156.730469 192.675781 C 158.425781 190.507812 161.5625 190.121094 163.730469 191.816406 C 164.097656 192.105469 164.417969 192.433594 164.679688 192.796875 L 181.132812 215.171875 C 182.539062 217.09375 182.371094 219.691406 180.859375 221.414062 Z M 124.277344 277.640625 L 170.847656 218.039062 L 160.535156 204.003906 L 103 277.640625 L 124.28125 277.640625 Z M 124.277344 277.640625 "/></g></svg>